<?xml version="1.0" encoding="utf-8"?>
<!-- Generator: Adobe Illustrator 21.0.2, SVG Export Plug-In . SVG Version: 6.00 Build 0)  -->
<svg version="1.1" id="Capa_1" xmlns="http://www.w3.org/2000/svg" xmlns:xlink="http://www.w3.org/1999/xlink" x="0px" y="0px"
	 viewBox="0 0 95 95" style="enable-background:new 0 0 95 95;" xml:space="preserve">
<g>
	<g>
		<path d="M10.7,60.4l-3.3,1.3C2.5,63.8-0.1,66,0,67.9c0.3,2.8,3.5,4.9,9.3,6.5c7.6,2,15.2,2.5,23.1,1.3v-7.9l0,0l-6.3,2.4
			c-6.6,2.3-9.9,0.4-9.9,0.4c-1-0.6-1.5-2.2,1.3-3.2L21,66l11.5-4.1v-9.2l-2.9,1L10.7,60.4z"/>
		<path d="M56.5,28.5v23.6c4.9,2.4,9.3,2.6,12.6,0.1c3.4-2.4,5.2-6.5,5.2-12.7c0-6.5-1.3-11.4-4.1-14.7c-2.6-3.5-7.1-6.4-13.8-8.7
			c-8.4-2.7-15.5-5.1-21.1-6.3v70.6l15.2,4.6V26.5C50.3,22.9,56.5,23.2,56.5,28.5z"/>
		<path d="M95,64.9c-0.1-2.5-3-4.4-8.2-6.1C81,56.9,75.9,56,70.5,56.2c-5,0.1-11,1.7-16.4,3.5v9l14.8-5.2c0,0,4.5-1.6,8.3-0.6
			c2.9,0.7,2.7,2.4-0.2,3.4l-3.4,1.4l-19.5,7v9.2l9.1-3.3l21.9-7.7l2.6-1.2C92.9,69.6,95.3,67.5,95,64.9z"/>
	</g>
</g>
</svg>
