<?xml version="1.0" encoding="utf-8"?>
<!-- Generator: Adobe Illustrator 21.0.2, SVG Export Plug-In . SVG Version: 6.00 Build 0)  -->
<svg version="1.1" id="Capa_1" xmlns="http://www.w3.org/2000/svg" xmlns:xlink="http://www.w3.org/1999/xlink" x="0px" y="0px"
	 viewBox="0 0 95 95" style="enable-background:new 0 0 95 95;" xml:space="preserve">
<g id="TJkOrF_1_">
	<g>
		<path d="M55.1,47.6c0-15.1,0-30.1,0-45.2c0-2,0.6-2.4,2.4-2.4c5.3,0.2,10.6,0,15.9,0.3c7,0.4,12.4,3.9,16.6,9.3
			C93.5,14,95,19.1,95,24.8c-0.1,14.9-0.2,29.9,0,44.8c0.2,11.5-6.6,21.2-17,24.4c-1.9,0.6-3.9,1-5.9,1.1c-5.1,0.1-10.1,0-15.2,0.1
			c-1.6,0-1.8-0.6-1.8-2C55.1,78,55.1,62.8,55.1,47.6z M73.9,43c-5.1,0-9.1,4.1-9.1,9.4c0,5,4.3,9.5,9.2,9.4c4.1,0,9.4-3.7,9.2-9.4
			C83.1,47.1,79.1,43,73.9,43z"/>
		<path d="M46.1,47.6c0,14.9,0,29.7,0,44.6c0,2.9,0,2.9-2.9,2.9c-6.2,0-12.5,0-18.7,0c-12.1,0-22-8.1-24.3-20C0,74.1,0,73,0,72
			c0-16.3,0-32.6,0-48.9c0-9.8,7.7-19.5,17.2-22c2.5-0.6,5.2-0.9,7.7-1c6.1-0.1,12.2,0,18.4,0c2.6,0,2.8,0.1,2.8,2.7
			C46.1,17.7,46.1,32.6,46.1,47.6z M37.8,8.1c-4.6,0-9,0-13.4,0C15.4,8,7.9,15.8,7.9,24.7c0,15,0.2,30-0.1,45
			C7.7,79,15.1,87.4,25.3,87.2c3.4-0.1,6.8-0.1,10.1,0c1.9,0.1,2.4-0.5,2.4-2.4c-0.1-24.9,0-49.7,0-74.6C37.8,9.6,37.8,9,37.8,8.1z"
			/>
		<path d="M14.8,28.7c0-5.5,3.6-9.1,8.9-9.2c5-0.1,9.2,3.7,9.2,9.2c0.1,5-4.3,9-9.3,9.1C19.1,37.8,14.2,33.8,14.8,28.7z"/>
	</g>
</g>
</svg>
